REM MD5 60c4ebf5e30de8dcce7c9575349edd27
FILE "Boundary Gate - Daughter of Kingdom (Japan).bin" BINARY
  TRACK 01 MODE2/2352
    INDEX 01 00:00:00
  TRACK 02 AUDIO
    INDEX 00 07:08:63
    INDEX 01 07:10:63
  TRACK 03 AUDIO
    INDEX 00 07:58:06
    INDEX 01 08:00:06
  TRACK 04 AUDIO
    INDEX 00 08:06:71
    INDEX 01 08:08:71
  TRACK 05 AUDIO
    INDEX 00 08:28:38
    INDEX 01 08:30:38
  TRACK 06 AUDIO
    INDEX 00 08:41:71
    INDEX 01 08:43:71
  TRACK 07 AUDIO
    INDEX 00 08:48:34
    INDEX 01 08:50:34
  TRACK 08 AUDIO
    INDEX 00 09:27:09
    INDEX 01 09:29:09
  TRACK 09 AUDIO
    INDEX 00 10:14:63
    INDEX 01 10:16:63
  TRACK 10 AUDIO
    INDEX 00 10:21:26
    INDEX 01 10:23:26
  TRACK 11 AUDIO
    INDEX 00 10:54:55
    INDEX 01 10:56:55
  TRACK 12 AUDIO
    INDEX 00 11:01:18
    INDEX 01 11:03:18
  TRACK 13 AUDIO
    INDEX 00 11:08:05
    INDEX 01 11:10:05
  TRACK 14 AUDIO
    INDEX 00 11:15:29
    INDEX 01 11:17:29
  TRACK 15 AUDIO
    INDEX 00 11:27:42
    INDEX 01 11:29:42
  TRACK 16 AUDIO
    INDEX 00 11:45:32
    INDEX 01 11:47:32
  TRACK 17 AUDIO
    INDEX 00 12:02:50
    INDEX 01 12:04:50
  TRACK 18 AUDIO
    INDEX 00 12:36:26
    INDEX 01 12:38:26
  TRACK 19 AUDIO
    INDEX 00 13:09:00
    INDEX 01 13:11:00
  TRACK 20 AUDIO
    INDEX 00 13:44:30
    INDEX 01 13:46:30
  TRACK 21 AUDIO
    INDEX 00 13:57:29
    INDEX 01 13:59:29
  TRACK 22 AUDIO
    INDEX 00 14:14:73
    INDEX 01 14:16:73
  TRACK 23 AUDIO
    INDEX 00 14:31:29
    INDEX 01 14:33:29
  TRACK 24 AUDIO
    INDEX 00 14:58:00
    INDEX 01 15:00:00
  TRACK 25 AUDIO
    INDEX 00 15:33:08
    INDEX 01 15:35:08
  TRACK 26 AUDIO
    INDEX 00 16:09:44
    INDEX 01 16:11:44
  TRACK 27 AUDIO
    INDEX 00 16:47:29
    INDEX 01 16:49:29
  TRACK 28 AUDIO
    INDEX 00 17:23:05
    INDEX 01 17:25:05
  TRACK 29 AUDIO
    INDEX 00 17:40:71
    INDEX 01 17:42:71
  TRACK 30 AUDIO
    INDEX 00 17:47:34
    INDEX 01 17:49:34
  TRACK 31 AUDIO
    INDEX 00 18:50:13
    INDEX 01 18:52:13
  TRACK 32 AUDIO
    INDEX 00 18:58:73
    INDEX 01 19:00:73
  TRACK 33 AUDIO
    INDEX 00 19:59:59
    INDEX 01 20:01:59
  TRACK 34 AUDIO
    INDEX 00 20:14:06
    INDEX 01 20:16:06
  TRACK 35 AUDIO
    INDEX 00 20:53:17
    INDEX 01 20:55:17
  TRACK 36 AUDIO
    INDEX 00 21:02:17
    INDEX 01 21:04:17
  TRACK 37 AUDIO
    INDEX 00 21:36:01
    INDEX 01 21:38:01
  TRACK 38 AUDIO
    INDEX 00 22:21:40
    INDEX 01 22:23:40
  TRACK 39 AUDIO
    INDEX 00 22:28:03
    INDEX 01 22:30:03
  TRACK 40 AUDIO
    INDEX 00 22:36:27
    INDEX 01 22:38:27
  TRACK 41 AUDIO
    INDEX 00 22:42:64
    INDEX 01 22:44:64
  TRACK 42 AUDIO
    INDEX 00 22:54:54
    INDEX 01 22:56:54
  TRACK 43 AUDIO
    INDEX 00 23:05:67
    INDEX 01 23:07:67
  TRACK 44 AUDIO
    INDEX 00 23:12:30
    INDEX 01 23:14:30
  TRACK 45 AUDIO
    INDEX 00 23:18:68
    INDEX 01 23:20:68
  TRACK 46 AUDIO
    INDEX 00 23:25:31
    INDEX 01 23:27:31
  TRACK 47 AUDIO
    INDEX 00 23:52:02
    INDEX 01 23:54:02
  TRACK 48 AUDIO
    INDEX 00 23:58:40
    INDEX 01 24:00:40
  TRACK 49 AUDIO
    INDEX 00 24:57:56
    INDEX 01 24:59:56
  TRACK 50 AUDIO
    INDEX 00 25:04:19
    INDEX 01 25:06:19
  TRACK 51 AUDIO
    INDEX 00 25:12:41
    INDEX 01 25:14:41
  TRACK 52 AUDIO
    INDEX 00 25:22:19
    INDEX 01 25:24:19
  TRACK 53 AUDIO
    INDEX 00 26:25:15
    INDEX 01 26:27:15
  TRACK 54 AUDIO
    INDEX 00 26:39:40
    INDEX 01 26:41:40
  TRACK 55 AUDIO
    INDEX 00 26:47:13
    INDEX 01 26:49:13
  TRACK 56 AUDIO
    INDEX 00 26:56:53
    INDEX 01 26:58:53
  TRACK 57 AUDIO
    INDEX 00 27:03:29
    INDEX 01 27:05:29
  TRACK 58 AUDIO
    INDEX 00 27:20:04
    INDEX 01 27:22:04
  TRACK 59 AUDIO
    INDEX 00 27:29:32
    INDEX 01 27:31:32
  TRACK 60 AUDIO
    INDEX 00 27:35:70
    INDEX 01 27:37:70
  TRACK 61 AUDIO
    INDEX 00 27:49:33
    INDEX 01 27:51:33
  TRACK 62 AUDIO
    INDEX 00 28:10:59
    INDEX 01 28:12:59
  TRACK 63 AUDIO
    INDEX 00 28:44:29
    INDEX 01 28:46:29
  TRACK 64 AUDIO
    INDEX 00 28:50:67
    INDEX 01 28:52:67
  TRACK 65 AUDIO
    INDEX 00 28:57:59
    INDEX 01 28:59:59
  TRACK 66 AUDIO
    INDEX 00 29:04:20
    INDEX 01 29:06:20
  TRACK 67 AUDIO
    INDEX 00 29:10:58
    INDEX 01 29:12:58
  TRACK 68 AUDIO
    INDEX 00 29:43:12
    INDEX 01 29:45:12
  TRACK 69 AUDIO
    INDEX 00 30:37:54
    INDEX 01 30:39:54
  TRACK 70 AUDIO
    INDEX 00 32:15:62
    INDEX 01 32:17:62
  TRACK 71 AUDIO
    INDEX 00 33:35:43
    INDEX 01 33:37:43
  TRACK 72 AUDIO
    INDEX 00 34:12:16
    INDEX 01 34:14:16
  TRACK 73 AUDIO
    INDEX 00 35:05:65
    INDEX 01 35:07:65
  TRACK 74 AUDIO
    INDEX 00 35:32:51
    INDEX 01 35:34:51
  TRACK 75 AUDIO
    INDEX 00 35:39:14
    INDEX 01 35:41:14
  TRACK 76 AUDIO
    INDEX 00 35:47:11
    INDEX 01 35:49:11
  TRACK 77 AUDIO
    INDEX 00 36:40:44
    INDEX 01 36:42:44
  TRACK 78 AUDIO
    INDEX 00 37:08:37
    INDEX 01 37:10:37
  TRACK 79 AUDIO
    INDEX 00 37:29:67
    INDEX 01 37:31:67
  TRACK 80 AUDIO
    INDEX 00 38:07:62
    INDEX 01 38:09:62
  TRACK 81 AUDIO
    INDEX 00 38:26:49
    INDEX 01 38:28:49
  TRACK 82 AUDIO
    INDEX 00 39:07:07
    INDEX 01 39:09:07
  TRACK 83 AUDIO
    INDEX 00 39:49:68
    INDEX 01 39:51:68
  TRACK 84 AUDIO
    INDEX 00 40:57:11
    INDEX 01 40:59:11
  TRACK 85 AUDIO
    INDEX 00 41:03:49
    INDEX 01 41:05:49
  TRACK 86 AUDIO
    INDEX 00 41:10:12
    INDEX 01 41:12:12
  TRACK 87 AUDIO
    INDEX 00 41:16:50
    INDEX 01 41:18:50
  TRACK 88 AUDIO
    INDEX 00 41:59:18
    INDEX 01 42:01:18
  TRACK 89 AUDIO
    INDEX 00 42:41:61
    INDEX 01 42:43:61
  TRACK 90 AUDIO
    INDEX 00 44:05:74
    INDEX 01 44:07:74
REM LEADOUT 47:56:19
